<svg xmlns="http://www.w3.org/2000/svg" width="160" height="24" fill="none"><path d="M27.793 11.994h8.794l-.672 3.372h-8.762l.64-3.372ZM72.635 0 68.16 22.697H39.367L43.85 0h4.123l-3.74 19.127h8.223L56.196 0h4.124l-3.741 19.127h8.192L68.511 0h4.124Z" fill="#333"/><path d="M72.635 0 68.16 22.697H39.367L43.85 0h4.123l-3.74 19.127h8.223L56.196 0h4.124l-3.741 19.127h8.192L68.511 0h4.124ZM85.914 13.941l4.99 8.756h-4.639l-3.615-6.943h-3.265l-1.374 6.943h-3.999l3.42-17.314h4l-1.375 6.999h3.069l6.498-6.999h4.38l-8.09 8.558Z" fill="#333"/><path d="m85.914 13.941 4.99 8.756h-4.639l-3.615-6.943h-3.265l-1.374 6.943h-3.999l3.42-17.314h4l-1.375 6.999h3.069l6.498-6.999h4.38l-8.09 8.558ZM137.839 5.383l-3.428 17.314h-3.999l2.726-13.878h-6.404l-.828 3.436c-.599 2.486-1.213 4.502-1.843 6.048-.625 1.546-1.369 2.72-2.233 3.523-.865.797-1.906 1.195-3.124 1.195-.661 0-1.429-.118-2.304-.356l.898-3.404c.297.063.552.095.765.095 1.047 0 1.88-.604 2.499-1.813.62-1.214 1.237-3.064 1.851-5.55l1.601-6.61h13.823Z" fill="#333"/><path d="m137.839 5.383-3.428 17.314h-3.999l2.726-13.878h-6.404l-.828 3.436c-.599 2.486-1.213 4.502-1.843 6.048-.625 1.546-1.369 2.72-2.233 3.523-.865.797-1.906 1.195-3.124 1.195-.661 0-1.429-.118-2.304-.356l.898-3.404c.297.063.552.095.765.095 1.047 0 1.88-.604 2.499-1.813.62-1.214 1.237-3.064 1.851-5.55l1.601-6.61h13.823ZM160 5.383l-3.389 17.314H152.8l.359-1.781c-1.494 1.34-3.35 2.01-5.568 2.01-1.411 0-2.687-.303-3.827-.91-1.14-.607-2.041-1.488-2.702-2.644-.661-1.156-.992-2.512-.992-4.07 0-1.92.422-3.654 1.265-5.2.844-1.547 1.994-2.753 3.452-3.618 1.463-.866 3.1-1.299 4.912-1.299 2.728 0 4.67.919 5.826 2.755l.477-2.557H160Zm-11.386 14.068c1.129 0 2.137-.274 3.022-.823.885-.55 1.583-1.314 2.093-2.296.515-.987.773-2.109.773-3.365 0-1.361-.396-2.425-1.187-3.19-.791-.77-1.9-1.156-3.327-1.156-1.13 0-2.137.277-3.022.831-.885.55-1.585 1.317-2.101 2.304-.51.982-.765 2.1-.765 3.357 0 1.361.393 2.425 1.179 3.19.791.765 1.903 1.148 3.335 1.148Z" fill="#333"/><path d="m160 5.383-3.389 17.314H152.8l.359-1.781c-1.494 1.34-3.35 2.01-5.568 2.01-1.411 0-2.687-.303-3.827-.91-1.14-.607-2.041-1.488-2.702-2.644-.661-1.156-.992-2.512-.992-4.07 0-1.92.422-3.654 1.265-5.2.844-1.547 1.994-2.753 3.452-3.618 1.463-.866 3.1-1.299 4.912-1.299 2.728 0 4.67.919 5.826 2.755l.477-2.557H160Zm-11.386 14.068c1.129 0 2.137-.274 3.022-.823.885-.55 1.583-1.314 2.093-2.296.515-.987.773-2.109.773-3.365 0-1.361-.396-2.425-1.187-3.19-.791-.77-1.9-1.156-3.327-1.156-1.13 0-2.137.277-3.022.831-.885.55-1.585 1.317-2.101 2.304-.51.982-.765 2.1-.765 3.357 0 1.361.393 2.425 1.179 3.19.791.765 1.903 1.148 3.335 1.148Z" fill="#333"/><path d="M105.821 3.316a10.126 10.126 0 0 0-5.879.937 10.307 10.307 0 0 0-4.375 4.09 10.506 10.506 0 0 0 .658 11.528 10.26 10.26 0 0 0 4.81 3.552 10.12 10.12 0 0 0 5.947.243 10.228 10.228 0 0 0 5.078-3.146 10.45 10.45 0 0 0 2.498-5.476 10.517 10.517 0 0 0-.652-5.338 10.382 10.382 0 0 0-3.198-4.293 10.177 10.177 0 0 0-4.887-2.097Zm-.283 2.059a8.153 8.153 0 0 1 4.312 2.02 8.33 8.33 0 0 1 2.484 4.103 30.345 30.345 0 0 0-7.362-2.006 29.97 29.97 0 0 0-7.646-.095 8.246 8.246 0 0 1 3.503-3.275 8.103 8.103 0 0 1 4.709-.747Zm-9.35 7.774 1.145.026c.848.019 1.672.28 2.38.754a4.54 4.54 0 0 1 1.615 1.924c.348.783.471 1.65.354 2.501l-.404 2.933a8.23 8.23 0 0 1-3.827-3.245 8.4 8.4 0 0 1-1.263-4.893Zm9.152 8.713.403-2.934a4.58 4.58 0 0 1 1.011-2.297 4.485 4.485 0 0 1 2.059-1.403 4.432 4.432 0 0 1 2.48-.079l1.109.293a8.339 8.339 0 0 1-2.523 4.35 8.148 8.148 0 0 1-4.539 2.07Z" fill="#333" fill-rule="evenodd"/><path d="M105.821 3.316a10.126 10.126 0 0 0-5.879.937 10.307 10.307 0 0 0-4.375 4.09 10.506 10.506 0 0 0 .658 11.528 10.26 10.26 0 0 0 4.81 3.552 10.12 10.12 0 0 0 5.947.243 10.228 10.228 0 0 0 5.078-3.146 10.45 10.45 0 0 0 2.498-5.476 10.517 10.517 0 0 0-.652-5.338 10.382 10.382 0 0 0-3.198-4.293 10.177 10.177 0 0 0-4.887-2.097Zm-.283 2.059a8.153 8.153 0 0 1 4.312 2.02 8.33 8.33 0 0 1 2.484 4.103 30.345 30.345 0 0 0-7.362-2.006 29.97 29.97 0 0 0-7.646-.095 8.246 8.246 0 0 1 3.503-3.275 8.103 8.103 0 0 1 4.709-.747Zm-9.35 7.774 1.145.026c.848.019 1.672.28 2.38.754a4.54 4.54 0 0 1 1.615 1.924c.348.783.471 1.65.354 2.501l-.404 2.933a8.23 8.23 0 0 1-3.827-3.245 8.4 8.4 0 0 1-1.263-4.893Zm9.152 8.713.403-2.934a4.58 4.58 0 0 1 1.011-2.297 4.485 4.485 0 0 1 2.059-1.403 4.432 4.432 0 0 1 2.48-.079l1.109.293a8.339 8.339 0 0 1-2.523 4.35 8.148 8.148 0 0 1-4.539 2.07Z" fill="#333" fill-rule="evenodd"/><path d="M18.938 17.44H7.677L4.45 22.697H0L14.557 0h4.123l5.569 22.697h-4.124l-1.187-5.257Zm-.765-3.301L15.9 4.149l-6.17 9.99h8.443Z" fill="#333"/><path d="M18.938 17.44H7.677L4.45 22.697H0L14.557 0h4.123l5.569 22.697h-4.124l-1.187-5.257Zm-.765-3.301L15.9 4.149l-6.17 9.99h8.443Z" fill="red"/></svg>